<svg width="140" height="109" viewBox="0 0 140 109" fill="none" xmlns="http://www.w3.org/2000/svg">
<g clip-path="url(#clip0_232_274)">
<path fill-rule="evenodd" clip-rule="evenodd" d="M139.13 108.609V0.608643C91.7881 2.90651 40.5505 6.98001 0 13.6647L17.2789 44.5815V108.609H139.13ZM98.8794 28.4965H106.071L112.063 55.9664L118.056 28.4965H125.247V92.6278H118.056V70.6937L118.256 51.5796H117.657L113.462 79.6761H110.565L106.37 51.5796H105.871L106.071 70.6937V92.6278H98.8794V28.4965ZM73.6102 37.5833C73.6102 31.4209 77.6054 27.5563 83.6978 27.5563C89.6906 27.5563 93.7857 31.4209 93.7857 37.5833V83.6453C93.7857 89.8078 89.7905 93.6724 83.6978 93.6724C77.7053 93.6724 73.6102 89.8078 73.6102 83.6453V37.5833ZM71.9124 28.4965L71.3131 36.0168H66.0195V92.6278H58.1291V36.0168H52.9354L52.3362 28.4965H71.9124ZM35.7565 28.4965H49.0402L53.6346 92.6278H45.944L45.1449 79.0497H39.4519L38.6528 92.6278H30.9622L35.7565 28.4965ZM42.7479 36.0168H42.0487L40.0512 72.1559H44.7455L42.7479 36.0168ZM86.0951 83.6453C86.0951 85.1075 85.0962 86.1521 83.6978 86.1521C82.1998 86.1521 81.3008 85.1075 81.3008 83.6453V37.5833C81.3008 36.1212 82.2997 35.0766 83.6978 35.0766C85.0962 35.0766 86.0951 36.1212 86.0951 37.5833V83.6453Z" fill="#848484"/>
</g>
<defs>
<clipPath id="clip0_232_274">
<rect width="140" height="109" fill="white"/>
</clipPath>
</defs>
</svg>
