<svg width="312" height="107" viewBox="0 0 312 107" fill="none" xmlns="http://www.w3.org/2000/svg">
<g clip-path="url(#clip0_232_277)">
<path d="M188.46 1.38477L236.96 55.3908L227.26 63.6994L180.145 11.0782L188.46 1.38477Z" fill="#848484"/>
<path d="M130.952 11.0782L82.4511 65.7765L74.8296 54.6984L121.944 1.38477L130.952 11.0782Z" fill="#848484"/>
<path d="M196.081 11.0778L148.273 65.7762L149.659 46.3894L185.688 4.84631L196.081 11.0778Z" fill="#848484"/>
<path d="M162.131 65.7765L123.33 20.0792L121.944 0L177.374 65.7765H162.131Z" fill="#848484"/>
<path d="M112 13.522C105.991 20.2042 101.049 25.6965 101.022 25.7259L100.969 25.7847L101.166 25.9104C102.274 26.627 102.875 27.587 103.006 28.8571C103.065 29.4374 103.003 30.4214 102.87 31.0364C102.843 31.1648 101.898 34.7051 100.774 38.9059C99.0521 45.3341 98.6303 46.9465 98.6623 46.9866C98.665 46.9919 104.044 40.9113 104.1 40.8365C104.127 40.8044 104.899 37.9807 105.817 34.5607C107.411 28.6405 107.494 28.3277 107.518 28.0095C107.576 27.3303 107.51 27.1164 107.117 26.7233C106.839 26.4452 106.599 26.3142 106.279 26.2661C106.113 26.242 106.076 26.226 106.087 26.1939C106.092 26.1698 106.164 25.9291 106.247 25.6564C106.327 25.3837 106.404 25.1457 106.415 25.127C106.431 25.1002 107.563 25.0949 112.23 25.0949H118.025L120.479 22.322C121.83 20.7951 122.948 19.5464 122.964 19.5464C122.983 19.5464 124.061 20.7978 125.362 22.3273L127.727 25.1082L131.069 25.1216C134.796 25.1376 134.502 25.1243 134.927 25.3248C135.173 25.4425 135.48 25.7259 135.581 25.9291C135.717 26.1992 135.723 26.3088 135.629 26.8757C135.562 27.2768 135.4 27.9239 134.85 30.0096C134.468 31.4562 134.161 32.6541 134.166 32.6702C134.187 32.721 136.43 35.3495 136.449 35.3442C136.457 35.3415 136.881 33.7826 137.394 31.8814L138.325 28.4239L138.36 28.0229C138.379 27.7795 138.384 27.5629 138.371 27.4747C138.336 27.2367 138.203 27.0067 137.962 26.7661C137.663 26.4666 137.367 26.3195 136.999 26.2901L136.913 26.2848L137.089 25.7045L137.263 25.1216L140.141 25.1163L143.019 25.1082L132.981 13.2519C127.463 6.73012 122.94 1.39022 122.935 1.38487C122.93 1.37685 118.007 6.83975 112 13.522Z" fill="#848484"/>
<path d="M178.301 13.3567C172.663 19.9026 168.023 25.2906 167.988 25.3334L167.924 25.4136L168.028 25.4644C168.338 25.6249 168.637 25.9324 168.787 26.2532C169.003 26.7212 168.995 27.3496 168.76 28.0528L168.658 28.3576H168.904H169.15L169.347 28.0956C169.932 27.3255 170.618 26.5821 171.123 26.1757C172.009 25.4618 173.01 25.0874 174.524 24.9056C174.687 24.8868 175.605 24.8708 177.113 24.8628C180.162 24.8467 180.968 24.8788 181.945 25.0553C182.359 25.1302 182.88 25.2719 183.155 25.3896L183.347 25.4698L183.43 25.3842C183.478 25.3361 184.623 24.0205 185.977 22.4616C187.33 20.9026 188.446 19.6245 188.457 19.6192C188.467 19.6165 189.567 20.8572 190.902 22.3787L193.331 25.1462L194.867 25.1516C195.71 25.1542 197.64 25.1649 199.151 25.1756C201.647 25.1917 201.917 25.197 202.061 25.2398C202.681 25.419 203.129 25.8709 203.161 26.3442C203.18 26.6062 203.044 27.3576 202.878 27.9271C202.803 28.1838 202.742 28.4031 202.742 28.4138C202.742 28.4272 202.854 28.4379 202.99 28.4379H203.241L203.503 28.1357C204.448 27.0474 205.23 26.2934 205.812 25.9056C206.389 25.5233 207.07 25.2505 207.854 25.0874C208.276 24.9992 208.538 24.9644 209.072 24.927L209.515 24.8949L199.143 13.3033C193.441 6.92855 188.724 1.6555 188.665 1.58598L188.553 1.45763L178.301 13.3567Z" fill="#848484"/>
<path d="M29.2809 67.8812C29.2756 67.8999 29.2222 68.1058 29.1635 68.3385L29.0593 68.7583L29.1314 68.7717C29.5773 68.8599 29.7668 68.9615 30.0818 69.277C30.2554 69.4535 30.3461 69.5685 30.4075 69.6942C30.6158 70.1274 30.5944 70.5739 30.3408 71.1114C28.0475 75.9833 18.2953 96.8215 18.2499 96.9498C18.2152 97.0514 18.1751 97.2306 18.1618 97.3509C18.1137 97.7654 18.2098 98.0756 18.4768 98.3617C18.8319 98.7467 19.3151 98.9606 19.9665 99.0275C20.1267 99.0409 22.4599 99.0569 25.8424 99.0623C30.8934 99.0703 31.4567 99.0649 31.4674 99.0275C31.4754 99.0061 31.5368 98.8029 31.6035 98.5756C31.6703 98.351 31.7237 98.1638 31.7183 98.1585C31.713 98.1558 31.6062 98.1371 31.4754 98.121C30.7359 98.0221 30.1966 97.6638 30.0418 97.1637C29.9964 97.0194 29.9884 96.9151 29.9884 96.5461V96.1022L32.4899 90.6527C33.8647 87.6578 34.9967 85.2112 35.002 85.2165C35.0127 85.2272 35.2983 98.2039 35.301 98.7654V99.081H41.4492L47.5948 99.0783L50.6622 92.1019C52.3495 88.2621 53.735 85.1283 53.743 85.1363C53.7484 85.1416 53.727 87.9359 53.6923 91.3425C53.6469 96.1369 53.6389 97.5702 53.6629 97.6878C53.7137 97.9338 53.8445 98.1611 54.0661 98.3938C54.3063 98.6451 54.5199 98.8029 54.7922 98.9339C55.1766 99.1157 54.6267 99.1024 62.5582 99.1104L69.753 99.1184L69.8678 98.6692C69.9318 98.4205 69.9799 98.2146 69.9746 98.2119C69.9692 98.2066 69.8571 98.1905 69.7236 98.1745C69.4113 98.1371 69.1256 98.0622 68.84 97.9472C68.2179 97.6932 67.8682 97.3536 67.7881 96.9338C67.7748 96.8562 67.385 90.7837 66.9231 83.4383C66.4613 76.093 66.0715 69.9696 66.0555 69.8305C65.9968 69.2984 65.8045 68.908 65.4014 68.5043C65.0063 68.1085 64.7127 67.9588 64.2108 67.9026C64.0372 67.8812 61.7787 67.8759 56.8211 67.8812L49.6851 67.8892L49.5543 68.3171C49.4822 68.5524 49.4235 68.7529 49.4235 68.7636C49.4235 68.7743 49.4636 68.7877 49.5116 68.7957C49.9975 68.8652 50.1737 68.9294 50.3659 69.1059C50.6249 69.3439 50.7343 69.7182 50.6809 70.1728C50.6649 70.3065 50.6249 70.4857 50.5902 70.5739C50.5314 70.7343 45.7874 80.6066 45.7768 80.5959C45.7714 80.5932 45.6913 78.0824 45.5952 75.0153C45.4991 71.9483 45.4083 69.3385 45.3923 69.2129C45.3256 68.6593 44.9732 68.2716 44.3218 68.0336C43.8252 67.8518 44.4793 67.8652 36.5077 67.8572C30.7012 67.8491 29.2916 67.8545 29.2809 67.8812Z" fill="#848484"/>
<path d="M174.857 74.7918C173.188 74.9228 172.07 75.3239 171.101 76.1341C170.628 76.5299 170.001 77.2224 169.451 77.9498L169.224 78.2492H168.853C168.514 78.2492 168.485 78.2466 168.503 78.2011C168.605 77.9417 168.735 77.5112 168.77 77.3374C168.818 77.0834 168.824 76.6021 168.781 76.3989C168.69 75.955 168.354 75.5459 167.9 75.3239C167.51 75.1341 167.192 75.0726 166.461 75.0378C166.095 75.0218 163.668 75.0164 160.243 75.0191L154.624 75.0271L154.528 75.4148C154.474 75.6288 154.423 75.8347 154.413 75.8721C154.397 75.9389 154.399 75.9416 154.538 75.9577C155.013 76.0058 155.649 76.4229 155.812 76.7919C155.894 76.9791 155.897 77.1235 155.838 77.685L155.782 78.2065L153.209 87.7792C150.6 97.483 150.496 97.8895 150.496 98.3146C150.496 98.6435 150.782 99.0206 151.174 99.2131C151.623 99.4323 150.899 99.411 158.399 99.427C162.077 99.435 165.089 99.4377 165.094 99.4377C165.113 99.4297 165.372 98.5392 165.358 98.5285C165.35 98.5205 165.27 98.4965 165.177 98.4751C164.846 98.3975 164.469 98.1355 164.224 97.8066C163.973 97.4723 163.922 97.229 163.973 96.606C163.997 96.3038 164.106 95.8867 165.887 89.2927C166.925 85.4475 167.812 82.212 167.854 82.1024C168.065 81.5997 168.364 81.2227 168.701 81.0462C169.013 80.8831 169.24 80.835 169.718 80.835C170.449 80.8323 170.842 80.99 171.01 81.351C171.055 81.45 171.066 81.5195 171.063 81.7521C171.061 81.9072 171.042 82.1051 171.018 82.1933C170.997 82.2816 170.078 85.7283 168.976 89.8542C166.867 97.7558 166.808 97.9884 166.843 98.4002C166.859 98.6195 166.96 98.7986 167.174 99.0018C167.369 99.1837 167.579 99.2986 167.873 99.3815L168.076 99.4404L174.756 99.4484L181.435 99.4537L181.518 99.181C181.563 99.0286 181.625 98.8334 181.654 98.7478C181.681 98.6596 181.705 98.574 181.705 98.5553C181.705 98.5392 181.646 98.5178 181.574 98.5098C181.165 98.4617 180.61 98.0151 180.394 97.5659C180.287 97.3386 180.268 97.1595 180.306 96.6862L180.338 96.2851L182.506 88.2097C183.699 83.7683 184.708 79.9846 184.751 79.8001C184.871 79.2546 184.911 78.9338 184.927 78.3615C184.948 77.5727 184.876 77.1449 184.641 76.6529C184.089 75.5058 182.839 74.9442 180.53 74.7998C180.14 74.7758 175.145 74.7677 174.857 74.7918Z" fill="#848484"/>
<path d="M208.869 74.7924C207.713 74.8967 206.666 75.2229 205.914 75.7149C205.334 76.0946 204.357 77.0439 203.489 78.068L203.292 78.3033H202.937C202.707 78.3033 202.582 78.2926 202.582 78.2739C202.582 78.2605 202.654 77.9985 202.739 77.6937C202.921 77.068 203.076 76.2257 203.046 76.0438C202.964 75.5385 202.427 75.1293 201.728 75.0438C201.575 75.0224 199.416 75.0144 194.971 75.0144H188.441L188.312 75.4475C188.243 75.6882 188.182 75.8941 188.182 75.9075C188.179 75.9208 188.254 75.9449 188.345 75.9663C188.617 76.0224 188.87 76.1722 189.127 76.4316C189.527 76.83 189.623 77.1 189.599 77.7338C189.589 78.044 189.573 78.1456 189.506 78.3702C189.46 78.5172 187.861 84.5069 185.95 91.6811C182.407 104.984 182.322 105.316 182.319 105.757C182.319 106.246 182.872 106.73 183.547 106.832C183.657 106.848 186.203 106.864 190.32 106.875L196.919 106.891L197.016 106.575C197.069 106.401 197.13 106.206 197.152 106.142C197.173 106.075 197.189 106.008 197.189 105.992C197.189 105.973 197.12 105.944 197.037 105.925C196.717 105.856 196.423 105.674 196.161 105.385C195.972 105.174 195.868 104.992 195.809 104.77C195.769 104.618 195.766 104.546 195.79 104.171L195.82 103.746L196.378 101.585L196.935 99.4249L201.22 99.4276C205.396 99.433 205.938 99.4249 206.8 99.3447C209.32 99.1174 210.989 98.5826 212.08 97.6574C213.493 96.4568 214.782 93.8952 215.781 90.3094C216.2 88.7933 217.401 84.3385 217.492 83.9454C218.231 80.8008 218.205 78.6402 217.412 77.1054C217.217 76.7284 217.006 76.4396 216.704 76.1374C215.935 75.3673 214.777 74.9315 213.143 74.8004C212.831 74.7764 209.133 74.7684 208.869 74.7924ZM203.941 81.5522C204.36 81.6511 204.597 81.8945 204.661 82.2875C204.691 82.4613 204.661 83.0122 204.613 83.1967C204.309 84.3866 202.213 92.133 202.16 92.2694C201.952 92.8042 201.525 93.1812 200.967 93.323C200.804 93.3631 200.633 93.3684 199.659 93.3711C198.676 93.3711 198.537 93.3657 198.543 93.331C198.564 93.2 201.386 82.702 201.431 82.587C201.562 82.2608 201.858 81.9052 202.136 81.742C202.307 81.6404 202.633 81.5415 202.881 81.5148C203.166 81.4827 203.719 81.5014 203.941 81.5522Z" fill="#848484"/>
<path d="M202.729 31.9269C202.419 31.9857 202.109 32.1462 201.901 32.3547C201.655 32.6061 201.543 32.8414 201.367 33.4965C201.287 33.796 201.22 34.058 201.22 34.0768C201.22 34.0928 201.754 34.7158 202.408 35.4592C203.062 36.1999 203.596 36.8015 203.596 36.7935C203.596 36.7855 203.796 36.0368 204.039 35.1276C204.285 34.2212 204.493 33.435 204.507 33.3842C204.552 33.2077 204.568 32.6542 204.533 32.5098C204.467 32.2371 204.274 32.0445 203.97 31.9536C203.762 31.8895 203.02 31.8734 202.729 31.9269Z" fill="#848484"/>
<path d="M232.228 74.7817C229.449 74.9314 227.551 75.3539 225.879 76.2015C224.174 77.0679 222.857 78.453 221.787 80.5013C221.296 81.4452 220.81 82.6859 220.471 83.8705C220.313 84.4186 218.992 89.3708 218.837 89.9831C218.468 91.4565 218.298 92.6598 218.295 93.8176C218.292 94.8685 218.418 95.6091 218.722 96.3552C219.627 98.5665 221.763 99.5933 225.762 99.7404C226.702 99.7752 236.467 99.7752 237.207 99.7404C240.296 99.596 242.503 98.989 243.974 97.882C245.624 96.6359 246.978 94.2775 247.982 90.8896C248.155 90.3013 249.525 85.1834 249.679 84.5523C249.914 83.5763 250.104 82.4747 250.184 81.6243C250.235 81.1109 250.227 80.1189 250.171 79.7125C250.077 79.0145 249.928 78.4851 249.674 77.953C248.823 76.1721 247.109 75.2015 244.268 74.886C243.347 74.7843 243.315 74.7843 237.808 74.779C234.828 74.7763 232.316 74.779 232.228 74.7817ZM236.414 80.8783C236.809 80.9692 237.065 81.1671 237.18 81.4666C237.231 81.6083 237.236 81.6618 237.228 81.9719L237.215 82.3196L235.875 87.2931C235.138 90.0286 234.51 92.3442 234.478 92.4405C234.385 92.732 234.193 93.0769 234.022 93.2587C233.723 93.5796 233.397 93.6839 232.682 93.6839C232.321 93.6839 232.191 93.6732 232.046 93.6331C231.691 93.5368 231.443 93.3069 231.358 93.002C231.339 92.9352 231.326 92.748 231.326 92.5876L231.328 92.2934L232.676 87.1808C233.435 84.3117 234.065 81.98 234.11 81.8677C234.428 81.1029 234.863 80.8409 235.827 80.8382C236.102 80.8355 236.28 80.8489 236.414 80.8783Z" fill="#848484"/>
<path d="M79.3981 76.7243C78.6773 79.2619 78.6239 79.5507 78.7974 80.024C79.0136 80.6176 79.6143 80.9358 80.6662 81.008C80.8824 81.024 82.5963 81.0347 84.6413 81.0347C88.5337 81.0347 88.4696 81.0321 88.7873 81.1791C88.9741 81.2647 89.1317 81.4305 89.1931 81.6043C89.2518 81.7781 89.2491 82.2193 89.1877 82.4573C89.0542 82.9867 88.6618 83.3664 88.0825 83.5295C87.8796 83.5884 87.8796 83.5884 83.6615 83.6017C79.0617 83.6204 79.2299 83.6151 78.3355 83.7782C77.1636 83.9921 76.0637 84.4173 75.2254 84.9788C74.7769 85.2783 74.5713 85.4441 74.2002 85.8051C73.4981 86.4923 72.9482 87.2838 72.4196 88.3747C71.8429 89.5647 71.4345 90.7813 71.1275 92.2306C70.7964 93.8002 70.8205 93.6077 70.8205 94.5917C70.8205 95.1693 70.8338 95.5463 70.8552 95.7148C70.986 96.6506 71.1942 97.2683 71.5653 97.8272C72.2594 98.8674 73.4501 99.3701 75.503 99.4877C76.2933 99.5332 79.4782 99.5038 80.0708 99.4476C81.8862 99.2738 82.6711 98.993 83.5574 98.2042C84.0112 97.8031 84.5826 97.1266 85.0337 96.4528L85.1725 96.2496H85.5303C85.7278 96.2496 85.8907 96.2576 85.8907 96.2683C85.8907 96.279 85.8506 96.4448 85.7999 96.6346C85.7492 96.8271 85.6878 97.0865 85.6638 97.2122C85.4902 98.0732 85.9628 98.8059 86.8571 99.0572C87.3884 99.207 87.0066 99.1989 93.6727 99.2096L99.813 99.2203L99.9278 98.7711C99.9892 98.5251 100.043 98.3138 100.04 98.3058C100.04 98.2978 99.9518 98.2818 99.845 98.2737C99.5967 98.2523 99.2363 98.1481 98.996 98.0277C98.6864 97.87 98.5128 97.6534 98.4648 97.3619C98.4461 97.2576 98.4594 97.1106 98.5209 96.7175C98.5929 96.2522 98.7745 95.5597 100.641 88.5887C101.762 84.3959 102.704 80.8663 102.734 80.7406C102.84 80.2833 102.875 79.9625 102.888 79.2699C102.902 78.6576 102.896 78.5533 102.846 78.2565C102.627 76.9623 101.893 76.0291 100.614 75.406C100.077 75.144 99.5033 74.9755 98.7851 74.8686C98.5395 74.8311 97.8081 74.8231 92.9119 74.8044C89.8364 74.7937 85.6611 74.783 83.6348 74.7803L79.9507 74.7777L79.3981 76.7243ZM87.6714 88.086C87.666 88.1127 87.399 89.1154 87.0787 90.3134C86.4486 92.6852 86.4219 92.7654 86.171 93.0355C85.8773 93.3537 85.5783 93.4526 84.9296 93.4526C84.3316 93.4526 84.0753 93.3857 83.8724 93.1825C83.5441 92.8536 83.5654 92.4097 83.9952 90.7813C84.3236 89.5406 84.4678 89.1395 84.7134 88.7785C84.9163 88.4844 85.298 88.225 85.6771 88.1234C85.9681 88.0458 85.9387 88.0485 86.8491 88.0432C87.634 88.0405 87.6847 88.0432 87.6714 88.086Z" fill="#848484"/>
<path d="M85.7655 42.6841L84.8818 43.6655L85.0607 43.6735C85.6133 43.7003 86.0778 43.4436 86.2887 42.9997C86.3662 42.8392 86.6812 41.7349 86.6598 41.7108C86.6518 41.7055 86.2514 42.144 85.7655 42.6841Z" fill="#848484"/>
<path d="M106.383 75.2161C106.311 75.4568 106.247 75.668 106.242 75.6814C106.236 75.6974 106.306 75.7269 106.399 75.7456C106.733 75.8151 107.133 76.0825 107.368 76.3953C107.648 76.7697 107.691 76.9408 107.648 77.5077L107.616 77.9249L105.547 85.6125C104.41 89.8427 103.43 93.49 103.374 93.7173C102.931 95.4553 102.958 96.7468 103.449 97.5945C103.575 97.8057 103.868 98.1239 104.084 98.2764C104.827 98.8031 106.132 99.0759 108.263 99.1427C108.722 99.1588 116.378 99.1748 126.616 99.1855C136.278 99.1935 144.791 99.2069 145.534 99.2149L146.884 99.231L146.994 98.7871C147.055 98.5437 147.106 98.3325 147.106 98.3191C147.106 98.3058 147.05 98.2844 146.981 98.2764C146.593 98.2229 146.19 98.0517 145.963 97.8485C145.704 97.6159 145.659 97.4448 145.702 96.8592C145.721 96.5864 145.923 95.8056 148.305 86.7249C151.087 76.1226 151.076 76.1654 151.004 75.8178C150.905 75.3418 150.371 74.9487 149.709 74.8685C149.541 74.8471 147.659 74.8391 143.409 74.8391H137.348L137.22 75.275C137.151 75.5129 137.092 75.7242 137.095 75.7402C137.095 75.7589 137.124 75.775 137.162 75.775C137.276 75.775 137.543 75.8793 137.722 75.9916C137.944 76.1306 138.269 76.4782 138.374 76.6841C138.504 76.9515 138.523 77.0826 138.488 77.5532L138.459 77.965L137.776 80.5132C137.399 81.9144 136.585 84.9386 135.971 87.2329C134.93 91.1048 134.842 91.423 134.716 91.6824C134.607 91.9097 134.545 91.9952 134.385 92.153C134.225 92.3161 134.142 92.3723 133.915 92.4819C133.523 92.6717 133.344 92.7118 132.89 92.7118C132.623 92.7118 132.468 92.6985 132.351 92.6664C131.731 92.5006 131.507 92.0968 131.633 91.3749C131.654 91.2412 132.516 87.9442 133.547 84.0482C135.501 76.6467 135.597 76.259 135.565 75.8766C135.528 75.4461 135.111 75.053 134.513 74.8872L134.305 74.8284L128.106 74.8177L121.91 74.8097L121.88 74.8979C121.795 75.1733 121.637 75.7028 121.637 75.7188C121.637 75.7322 121.696 75.7483 121.768 75.7589C121.942 75.783 122.281 75.9541 122.47 76.1173C122.791 76.3873 123.018 76.7563 123.05 77.0585C123.058 77.1387 123.052 77.3794 123.036 77.5933L123.007 77.981L121.266 84.452C120.311 88.011 119.496 91.0299 119.462 91.1636C119.376 91.4685 119.224 91.784 119.061 92.0006C118.746 92.4177 118.1 92.7011 117.454 92.7011C116.792 92.7011 116.338 92.4765 116.199 92.0781C116.135 91.8909 116.141 91.5086 116.213 91.1904C116.242 91.0567 117.115 87.7918 118.148 83.9306C119.745 77.9757 120.041 76.8366 120.11 76.4248C120.183 75.9889 120.188 75.9221 120.159 75.783C120.094 75.4621 119.841 75.176 119.462 74.9942C119.064 74.8043 119.507 74.8177 112.678 74.7963L106.514 74.7776L106.383 75.2161Z" fill="#848484"/>
<path d="M258.86 74.8046C258.852 74.8234 258.788 75.0319 258.716 75.2699L258.588 75.7004L258.742 75.7325C258.953 75.7753 259.116 75.8502 259.308 75.9892C259.621 76.2138 259.877 76.54 259.965 76.8261C260.069 77.1657 260.019 77.7059 259.848 78.0749C259.733 78.3182 251.518 95.4048 251.364 95.723C251.297 95.854 251.201 96.0332 251.147 96.1214C250.88 96.5546 250.758 97.1776 250.846 97.6616C250.96 98.298 251.446 98.8221 252.13 99.0494C252.263 99.0922 252.471 99.143 252.597 99.1564C252.746 99.1751 254.402 99.1858 257.581 99.1858H262.341L262.355 99.1243C262.405 98.9157 262.523 98.2873 262.512 98.2793C262.507 98.274 262.44 98.2579 262.365 98.2472C262.176 98.2178 261.874 98.0681 261.716 97.9264C261.14 97.4156 261.094 96.8006 261.554 95.7631C261.927 94.9155 264.536 88.9873 264.576 88.8937C264.597 88.8456 264.618 88.8082 264.624 88.8162C264.629 88.8215 264.933 91.1345 265.302 93.9582C265.67 96.7819 265.98 99.1189 265.985 99.151L265.999 99.2125H270.759L275.516 99.2099L278.426 94.017L281.336 88.8242L281.349 93.5036L281.363 98.1831L281.435 98.3996C281.475 98.5173 281.555 98.6804 281.611 98.7606C281.76 98.9772 282.019 99.0949 282.551 99.1885C282.676 99.2125 284.329 99.2232 288.683 99.2312L294.641 99.2419L294.657 99.1804C294.671 99.1189 294.831 98.3274 294.831 98.3168C294.831 98.3141 294.775 98.3034 294.703 98.2954C294.398 98.2606 294.022 98.044 293.702 97.7258C293.392 97.4156 293.221 97.1055 293.189 96.7979C293.181 96.7231 292.773 92.0249 292.281 86.3642C291.79 80.7007 291.382 75.9945 291.374 75.9036C291.336 75.54 291.067 75.2057 290.653 75.0105C290.247 74.818 290.733 74.8314 283.661 74.8207L277.286 74.8127L277.155 75.2405C277.083 75.4758 277.024 75.6817 277.024 75.7004C277.024 75.7165 277.075 75.7378 277.139 75.7485C277.435 75.7993 277.774 76.0026 278.044 76.2914C278.218 76.4812 278.338 76.6791 278.397 76.8823C278.477 77.1524 278.437 77.7032 278.316 78C278.276 78.1016 274.889 83.2196 274.862 83.2223C274.849 83.2223 273.607 76.1122 273.567 75.8154C273.508 75.3528 272.985 74.925 272.366 74.8314C272.24 74.8127 270.008 74.7966 265.523 74.7859C260.008 74.7725 258.868 74.7752 258.86 74.8046Z" fill="#848484"/>
<path d="M169.198 31.2077C168.957 31.2612 168.669 31.3976 168.509 31.5393C168.253 31.7666 168.02 32.1677 167.879 32.6222C167.836 32.7693 166.968 35.9647 165.957 39.7216L164.115 46.5536L164.088 46.9413C164.064 47.2862 164.075 47.5296 164.12 47.5723C164.133 47.5884 168.012 43.1362 168.042 43.0667C168.052 43.0427 168.693 40.6602 169.465 37.7696C170.233 34.8791 170.877 32.4725 170.893 32.4217C170.909 32.3709 170.93 32.1998 170.938 32.042C170.952 31.8067 170.946 31.7318 170.909 31.6356C170.823 31.4136 170.597 31.2692 170.228 31.2024C169.964 31.1569 169.435 31.1596 169.198 31.2077Z" fill="#848484"/>
<path d="M149.525 32.9858C149.503 33.066 148.697 36.1331 147.733 39.8017C146.77 43.4704 145.977 46.492 145.971 46.5134C145.963 46.5374 146.311 46.9679 146.869 47.6231C147.368 48.2113 147.784 48.7087 147.792 48.7274C147.8 48.7434 147.624 48.9681 147.402 49.2248C147.181 49.4815 146.999 49.7007 146.999 49.7087C146.999 49.7168 146.97 49.7515 146.933 49.7836C146.898 49.8157 143.814 53.3854 140.085 57.7172L133.304 65.5921L137.794 65.6108C140.266 65.6215 143.676 65.6295 145.371 65.6241L148.452 65.6188L151.903 61.648C153.804 59.4633 155.366 57.6745 155.379 57.6691C155.393 57.6638 156.925 59.4526 158.786 61.6399L162.168 65.6188L169.739 65.6322C173.907 65.6402 177.316 65.6455 177.319 65.6429C177.324 65.6429 174.307 62.0758 170.618 57.7146L163.909 49.789L157.835 49.7729C151.765 49.7542 151.765 49.7542 151.543 49.698C151.036 49.5697 150.662 49.2943 150.47 48.9146C150.352 48.6739 150.347 48.5482 150.441 47.9947C150.507 47.599 150.764 46.615 151.898 42.3981C152.654 39.5825 153.273 37.2668 153.273 37.2508C153.273 37.2347 152.472 36.2774 151.495 35.1223C150.515 33.9671 149.682 32.9831 149.642 32.9323L149.565 32.8414L149.525 32.9858Z" fill="#848484"/>
<path d="M217.649 34.0955C217.457 34.9057 215.933 40.521 215.676 41.366C214.921 43.8635 214.003 45.8582 213.06 47.0481C212.961 47.1738 212.876 47.2888 212.868 47.3075C212.863 47.3236 216.491 51.4709 220.933 56.522L229.009 65.707L232.434 65.7231C234.319 65.7311 251.37 65.7552 270.324 65.7792C289.282 65.8006 306.253 65.8247 308.039 65.8327L311.285 65.8461L311.296 60.6238C311.301 57.7547 311.298 55.3962 311.29 55.3882C311.282 55.3802 294.506 55.3508 274.008 55.3267C253.511 55.3 236.727 55.2759 236.708 55.2706C236.692 55.2652 235.656 54.1181 234.404 52.7196L232.132 50.1793L228.656 50.1686C225.167 50.158 225.047 50.1553 224.179 50.0563C222.78 49.8932 221.542 49.5429 220.714 49.075C219.475 48.3691 218.682 47.2995 218.351 45.885C218.226 45.3582 218.194 45.0667 218.181 44.3555C218.165 43.5827 218.191 43.1442 218.306 42.342C218.458 41.2724 218.589 40.7028 219.294 38.0797C219.545 37.1411 219.745 36.3576 219.74 36.3416C219.729 36.3149 217.9 34.2559 217.732 34.0821L217.668 34.0179L217.649 34.0955Z" fill="#848484"/>
<path d="M85.002 47.0538C84.6336 47.5806 84.3319 47.9442 83.9047 48.3747C83.4803 48.7972 83.232 48.9978 82.8636 49.217C82.3136 49.5406 81.5688 49.7465 80.525 49.8668C80.1939 49.9043 79.4624 49.9604 79.2916 49.9631C79.2275 49.9631 78.8965 50.3214 76.9343 52.5033L74.649 55.0436L70.1987 55.0409C67.7506 55.0409 50.9665 55.0195 32.8982 54.9928C14.83 54.9661 0.0427146 54.9473 0.0373752 54.9527C0.0320359 54.958 0.0213573 57.3138 0.0133483 60.1883L0 65.4186H6.61809C10.2568 65.4212 28.7709 65.4426 47.7549 65.472C79.943 65.5175 82.2763 65.5175 82.3163 65.4774C82.5646 65.2234 96.2493 49.7117 96.2359 49.701C96.2252 49.6903 94.2337 49.6743 91.8096 49.6663C86.9455 49.6476 87.2285 49.6582 86.7052 49.4791C86.1606 49.2919 85.7602 48.9229 85.5946 48.455C85.4612 48.0753 85.4718 47.7571 85.64 47.11C85.6908 46.9148 85.7308 46.749 85.7308 46.741C85.7308 46.7329 85.6187 46.7276 85.4799 46.7276H85.2289L85.002 47.0538Z" fill="#848484"/>
</g>
<defs>
<clipPath id="clip0_232_277">
<rect width="312" height="107" fill="white"/>
</clipPath>
</defs>
</svg>
