<svg width="302" height="222" viewBox="0 0 302 222" fill="none" xmlns="http://www.w3.org/2000/svg">
<path d="M2.45872 214.634V192.254H10.4359C12.1771 192.254 13.6195 192.571 14.7633 193.205C15.907 193.838 16.763 194.705 17.3313 195.805C17.8995 196.898 18.1836 198.129 18.1836 199.499C18.1836 200.876 17.8959 202.114 17.3203 203.214C16.7521 204.307 15.8925 205.174 14.7414 205.815C13.5976 206.449 12.1588 206.766 10.425 206.766H4.9393V203.903H10.119C11.2191 203.903 12.1115 203.713 12.7963 203.334C13.4811 202.948 13.9838 202.424 14.3043 201.761C14.6248 201.098 14.7851 200.344 14.7851 199.499C14.7851 198.654 14.6248 197.903 14.3043 197.248C13.9838 196.592 13.4774 196.079 12.7854 195.707C12.1006 195.335 11.1972 195.15 10.0753 195.15H5.83537V214.634H2.45872ZM22.1422 214.634V192.254H25.5188V211.727H35.6597V214.634H22.1422ZM42.5441 214.634H38.9598L47.0135 192.254H50.9147L58.9684 214.634H55.3841L49.057 196.319H48.8821L42.5441 214.634ZM43.1451 205.87H54.7721V208.711H43.1451V205.87ZM74.2261 198.133C74.1095 197.098 73.6287 196.297 72.7836 195.729C71.9386 195.153 70.8749 194.866 69.5928 194.866C68.6748 194.866 67.8808 195.011 67.2105 195.303C66.5403 195.587 66.0194 195.98 65.6479 196.483C65.2836 196.978 65.1015 197.543 65.1015 198.177C65.1015 198.708 65.2253 199.167 65.473 199.554C65.728 199.94 66.0595 200.264 66.4675 200.526C66.8827 200.781 67.3271 200.996 67.8006 201.171C68.2742 201.338 68.7295 201.477 69.1666 201.586L71.3521 202.154C72.0661 202.329 72.7982 202.566 73.5486 202.865C74.2989 203.163 74.9947 203.557 75.6358 204.045C76.2769 204.533 76.7941 205.138 77.1875 205.859C77.5882 206.58 77.7885 207.443 77.7885 208.449C77.7885 209.716 77.4607 210.842 76.805 211.825C76.1566 212.809 75.2132 213.585 73.9748 214.153C72.7436 214.721 71.2538 215.005 69.5053 215.005C67.8298 215.005 66.38 214.739 65.1561 214.207C63.9322 213.676 62.9743 212.922 62.2822 211.945C61.5901 210.962 61.2076 209.796 61.1348 208.449H64.5223C64.5879 209.257 64.8502 209.931 65.3091 210.47C65.7754 211.002 66.3691 211.399 67.0903 211.661C67.8188 211.916 68.6166 212.044 69.4835 212.044C70.4378 212.044 71.2866 211.894 72.0296 211.596C72.78 211.29 73.3701 210.867 73.7999 210.328C74.2297 209.782 74.4446 209.144 74.4446 208.416C74.4446 207.753 74.2552 207.21 73.8764 206.788C73.5049 206.365 72.9986 206.015 72.3575 205.739C71.7237 205.462 71.0061 205.218 70.2047 205.006L67.5602 204.285C65.7681 203.797 64.3475 203.079 63.2984 202.132C62.2567 201.185 61.7358 199.932 61.7358 198.373C61.7358 197.084 62.0855 195.958 62.7848 194.997C63.4842 194.035 64.4313 193.288 65.626 192.757C66.8208 192.217 68.1685 191.948 69.6693 191.948C71.1846 191.948 72.5214 192.214 73.6797 192.746C74.8453 193.277 75.7633 194.01 76.4335 194.942C77.1037 195.867 77.4534 196.931 77.4825 198.133H74.2261ZM81.8235 192.254H85.9214L93.0462 209.651H93.3085L100.433 192.254H104.531V214.634H101.318V198.439H101.111L94.5106 214.601H91.8442L85.2439 198.428H85.0363V214.634H81.8235V192.254ZM111.331 214.634H107.747L115.8 192.254H119.702L127.755 214.634H124.171L117.844 196.319H117.669L111.331 214.634ZM111.932 205.87H123.559V208.711H111.932V205.87ZM146.376 214.634H139.131V192.254H146.605C148.798 192.254 150.681 192.702 152.255 193.598C153.829 194.487 155.034 195.765 155.872 197.434C156.717 199.095 157.14 201.087 157.14 203.411C157.14 205.742 156.713 207.746 155.861 209.421C155.016 211.097 153.792 212.386 152.189 213.29C150.587 214.186 148.649 214.634 146.376 214.634ZM142.508 211.683H146.19C147.895 211.683 149.312 211.363 150.441 210.722C151.57 210.073 152.415 209.137 152.976 207.913C153.537 206.682 153.818 205.181 153.818 203.411C153.818 201.655 153.537 200.165 152.976 198.942C152.423 197.718 151.596 196.789 150.496 196.155C149.396 195.521 148.03 195.204 146.398 195.204H142.508V211.683ZM158.47 192.254H162.306L168.152 202.427H168.392L174.239 192.254H178.074L169.955 205.848V214.634H166.589V205.848L158.47 192.254ZM199.326 192.254V214.634H196.222L184.847 198.22H184.639V214.634H181.262V192.254H184.388L195.774 208.689H195.982V192.254H199.326ZM206.142 214.634H202.558L210.611 192.254H214.513L222.566 214.634H218.982L212.655 196.319H212.48L206.142 214.634ZM206.743 205.87H218.37V208.711H206.743V205.87ZM225.798 192.254H229.896L237.021 209.651H237.283L244.408 192.254H248.506V214.634H245.293V198.439H245.085L238.485 214.601H235.819L229.218 198.428H229.011V214.634H225.798V192.254ZM256.792 192.254V214.634H253.415V192.254H256.792ZM280.297 199.532H276.888C276.757 198.803 276.512 198.162 276.156 197.608C275.799 197.055 275.361 196.585 274.844 196.199C274.327 195.813 273.748 195.521 273.107 195.325C272.473 195.128 271.799 195.029 271.085 195.029C269.796 195.029 268.641 195.354 267.621 196.002C266.608 196.65 265.807 197.601 265.217 198.854C264.634 200.107 264.343 201.637 264.343 203.444C264.343 205.265 264.634 206.802 265.217 208.055C265.807 209.308 266.612 210.255 267.632 210.896C268.652 211.537 269.799 211.858 271.074 211.858C271.781 211.858 272.451 211.763 273.085 211.574C273.726 211.377 274.305 211.089 274.822 210.711C275.34 210.332 275.777 209.869 276.134 209.323C276.498 208.769 276.749 208.135 276.888 207.421L280.297 207.432C280.115 208.532 279.762 209.545 279.237 210.47C278.72 211.388 278.053 212.182 277.237 212.852C276.429 213.515 275.503 214.029 274.462 214.393C273.42 214.758 272.283 214.94 271.052 214.94C269.114 214.94 267.388 214.481 265.873 213.563C264.357 212.638 263.163 211.315 262.288 209.596C261.421 207.877 260.988 205.826 260.988 203.444C260.988 201.054 261.425 199.003 262.299 197.291C263.173 195.572 264.368 194.254 265.884 193.336C267.399 192.41 269.122 191.948 271.052 191.948C272.24 191.948 273.347 192.119 274.374 192.461C275.409 192.797 276.338 193.292 277.161 193.948C277.984 194.596 278.665 195.39 279.204 196.33C279.743 197.262 280.108 198.33 280.297 199.532ZM296.544 198.133C296.427 197.098 295.946 196.297 295.101 195.729C294.256 195.153 293.193 194.866 291.91 194.866C290.993 194.866 290.198 195.011 289.528 195.303C288.858 195.587 288.337 195.98 287.966 196.483C287.601 196.978 287.419 197.543 287.419 198.177C287.419 198.708 287.543 199.167 287.791 199.554C288.046 199.94 288.377 200.264 288.785 200.526C289.2 200.781 289.645 200.996 290.118 201.171C290.592 201.338 291.047 201.477 291.484 201.586L293.67 202.154C294.384 202.329 295.116 202.566 295.866 202.865C296.617 203.163 297.312 203.557 297.953 204.045C298.595 204.533 299.112 205.138 299.505 205.859C299.906 206.58 300.106 207.443 300.106 208.449C300.106 209.716 299.778 210.842 299.123 211.825C298.474 212.809 297.531 213.585 296.292 214.153C295.061 214.721 293.571 215.005 291.823 215.005C290.147 215.005 288.698 214.739 287.474 214.207C286.25 213.676 285.292 212.922 284.6 211.945C283.908 210.962 283.525 209.796 283.452 208.449H286.84C286.906 209.257 287.168 209.931 287.627 210.47C288.093 211.002 288.687 211.399 289.408 211.661C290.137 211.916 290.934 212.044 291.801 212.044C292.756 212.044 293.604 211.894 294.347 211.596C295.098 211.29 295.688 210.867 296.118 210.328C296.547 209.782 296.762 209.144 296.762 208.416C296.762 207.753 296.573 207.21 296.194 206.788C295.823 206.365 295.316 206.015 294.675 205.739C294.041 205.462 293.324 205.218 292.522 205.006L289.878 204.285C288.086 203.797 286.665 203.079 285.616 202.132C284.574 201.185 284.053 199.932 284.053 198.373C284.053 197.084 284.403 195.958 285.103 194.997C285.802 194.035 286.749 193.288 287.944 192.757C289.138 192.217 290.486 191.948 291.987 191.948C293.502 191.948 294.839 192.214 295.997 192.746C297.163 193.277 298.081 194.01 298.751 194.942C299.421 195.867 299.771 196.931 299.8 198.133H296.544Z" fill="black"/>
<path fill-rule="evenodd" clip-rule="evenodd" d="M143.378 154.026C146.671 159.407 149.436 159.407 150.968 159.407H150.968C152.76 159.407 155.793 159.406 158.856 153.978C175.33 154.177 200.768 155.681 222.871 167.049H80C105.372 156.33 128.52 154.381 143.378 154.026Z" fill="black"/>
<path d="M173.033 103.724C170.818 105.907 165.28 129.564 163.065 138.663L183 113.55C180.785 113.55 173.033 115.734 173.033 114.642C173.033 107 173.739 103.028 173.033 103.724Z" fill="black"/>
<path d="M129.838 104.894C132.053 107.077 137.591 130.734 139.806 139.832L119.871 114.72C122.086 114.72 129.838 116.903 129.838 115.812C129.838 108.169 129.133 104.198 129.838 104.894Z" fill="black"/>
<path d="M149.774 0L144.237 116.826C144.375 113.914 145.676 108.746 149.774 111.366C153.873 113.987 152.959 143.757 151.99 158.315L166.387 62.2342C163.065 68.7852 155.977 80.5769 154.205 75.3361C152.433 70.0954 150.513 22.9284 149.774 0Z" fill="black"/>
</svg>
