<svg width="258" height="73" viewBox="0 0 258 73" fill="none" xmlns="http://www.w3.org/2000/svg">
<g clip-path="url(#clip0_232_270)">
<path fill-rule="evenodd" clip-rule="evenodd" d="M126.959 72.6964L126.267 69.9256H115.083L112.572 72.6964H110.474L122.544 59.485L125.322 59.4678L128.829 72.6649L126.959 72.6964ZM131.912 72.6964L136.242 59.4676H137.961L133.619 72.6964H131.912ZM177.594 72.6964L181.904 59.4676H183.624L179.303 72.6964H177.594ZM151.242 72.6957L148.362 67.1603H142.901L141.108 72.6957H139.481L143.755 59.4781H155.456C156.899 59.4781 157.93 59.7608 158.388 60.4027C158.736 60.8901 159.253 61.8755 158.95 62.8093C158.217 65.0881 156.366 66.9253 154.458 66.9253H149.901L153.521 72.6881L151.242 72.6957ZM143.304 65.8942H153.21C154.66 65.8942 156.441 64.9924 156.891 63.5962C157.201 62.6237 158.014 60.7479 154.006 60.7479H144.969L143.304 65.8942ZM160.242 72.6964L164.571 59.4676H166.172L162.311 71.2612H175.045L174.571 72.6964H160.242ZM184.635 72.6964L188.995 59.3301L202.942 70.4839L206.59 59.4676H208.191L203.803 72.843L189.723 61.4535L186.249 72.6732L184.635 72.6964ZM209.153 72.6964L213.506 59.468L228.691 59.4678L228.37 60.4525L214.694 60.4527L213.182 65.0665H226.874L226.551 66.0565L212.867 66.056L211.018 71.713H224.694L224.37 72.6964H209.153ZM235.992 72.9226C233.162 72.9226 230.72 72.6624 228.716 72.1465L229.61 70.8435C231.079 71.3123 233.402 71.9767 237.077 71.9767C239.945 71.9767 244.331 71.1829 245.098 69.0143C245.736 67.2055 241.587 67.0618 238.289 66.8138C235.354 66.5822 232.077 66.5095 231.163 65.0107C231.084 64.8815 230.824 64.5004 231.183 63.3924C231.953 61.0159 236.513 59.356 242.271 59.356C244.921 59.356 247.43 59.6135 249.119 60.0452L248.274 61.3463C246.549 60.7026 243.952 60.3226 241.201 60.3226C238.011 60.3226 233.389 61.051 232.774 62.9312C232.607 63.436 232.592 63.8126 232.859 64.2348C233.506 65.256 236.589 65.0665 239.715 65.1268C243.004 65.1911 246.707 65.3359 247.285 66.8422C247.336 66.9762 247.636 67.5153 247.284 68.5978C246.199 71.9315 240.508 72.9226 235.992 72.9226ZM115.885 68.9666H126.065L123.856 60.2292L115.885 68.9666Z" fill="#848484"/>
<path fill-rule="evenodd" clip-rule="evenodd" d="M199.017 44.0218L213.329 0.326054H228.208L217.373 33.3986H257.326L250.15 44.0218H199.017ZM180.991 0H165.908L122.09 44.0209H140.388L147.536 36.1299H175.398L177.355 44.0209H195.93L180.991 0ZM155.775 26.8668L169.38 11.9293L173.163 26.8668H155.775ZM118.672 0.326054H77.3193L63.0133 44.0209H77.9282L83.0125 28.458H94.2468L102.447 44.0209H121.974L111.491 26.9513L114.186 26.9519C120.999 26.9519 127.905 21.344 130.468 13.4755C133.464 4.41901 127.349 0.326054 118.672 0.326054ZM115.808 14.1576C114.794 17.2576 112.189 18.364 110.011 18.364H86.3326L88.9135 10.4312H112.29C115.117 10.4312 116.626 11.7366 115.808 14.1576ZM25.095 44.7717C12.6618 44.7717 -3.76891 41.5565 0.772918 27.6849L9.71807 0.326054H24.64L16.3196 25.6829C14.5279 31.1875 18.4451 34.6857 28.3864 34.6857C38.4147 34.6857 44.5702 31.1373 46.368 25.6829L54.6668 0.326054H69.4908L60.5369 27.6849C56.0796 41.3598 37.8268 44.7717 25.095 44.7717Z" fill="#848484"/>
</g>
<defs>
<clipPath id="clip0_232_270">
<rect width="258" height="73" fill="white"/>
</clipPath>
</defs>
</svg>
