<svg width="180" height="105" viewBox="0 0 180 105" fill="none" xmlns="http://www.w3.org/2000/svg">
<g clip-path="url(#clip0_232_300)">
<path d="M82.6923 0.187207C92.5328 -0.345148 102.444 0.242352 112.139 2.14908C120.496 3.81613 128.736 6.44821 136.314 10.5904C141.885 13.6806 147.184 17.6467 150.986 23.0361C153.428 26.5017 155.134 30.6312 155.462 34.9727C155.837 39.3355 154.761 43.7619 152.718 47.5435C149.616 53.2784 144.668 57.6094 139.39 60.9775C132.026 65.599 123.833 68.5471 115.508 70.5048C106.404 72.6214 97.058 73.4931 87.7434 73.3786C78.8421 73.2195 69.9306 72.1845 61.273 69.9427C55.7643 68.528 50.3596 66.6128 45.2165 64.0762C39.2743 61.1005 33.5698 57.2573 29.264 51.9189C25.9832 47.8658 23.6773 42.7375 23.5575 37.3312C23.3597 32.1157 25.2339 27.0043 28.183 22.894C31.9594 17.6192 37.1643 13.7061 42.647 10.6498C50.0918 6.56275 58.186 3.93914 66.3981 2.25725C71.7749 1.16496 77.2256 0.494743 82.6923 0.187207ZM86.6065 7.50443C78.7921 7.71017 70.9816 8.68155 63.371 10.601C56.162 12.4462 49.0569 15.0974 42.709 19.2247C39.7379 21.1887 36.9125 23.4772 34.6408 26.3214C32.8445 28.5781 31.3739 31.2122 30.8305 34.1392C30.225 37.2484 30.8024 40.5316 32.2191 43.3079C34.413 47.6517 38.0395 50.9412 41.8798 53.5987C47.5563 57.4652 53.9101 60.0803 60.3919 61.9722C69.2354 64.5364 78.4025 65.7156 87.5556 65.9002C96.9107 66.0401 106.303 65.1197 115.421 62.8524C123.101 60.9075 130.679 58.0654 137.343 53.4969C140.627 51.2042 143.716 48.4598 145.921 44.9708C147.7 42.1881 148.775 38.7819 148.419 35.3968C148.179 32.7266 147.11 30.209 145.671 28.0287C143.521 24.7625 140.59 22.1729 137.483 19.9819C131.114 15.5746 123.883 12.7749 116.543 10.8131C106.769 8.25949 96.6604 7.27538 86.6065 7.50443ZM89.4078 10.7304C96.0754 10.5607 102.749 11.2543 109.288 12.6244C109.29 14.9935 109.283 17.3647 109.292 19.7358C107.243 19.352 105.157 19.2671 103.09 19.0211C103.099 33.1974 103.09 47.3759 103.094 61.5522C100.741 61.7728 98.3834 61.9489 96.0374 62.2351C95.9575 47.5775 96.0214 32.9175 96.0035 18.2576C93.8096 18.0858 91.6077 18.0307 89.4078 18.0328C89.4098 15.6001 89.4078 13.1652 89.4078 10.7304ZM70.2203 12.4505C73.737 11.8163 77.4414 12.1832 80.7502 13.6233C84.1589 15.0868 87.0101 18.0921 88.1611 21.8313C89.0721 24.7943 89.248 28.1496 88.0491 31.0511C87.18 33.2208 85.6394 34.9981 83.9631 36.504C86.5246 38.6334 88.3908 41.7427 88.9603 45.1595C89.4678 48.3071 88.7684 51.6157 87.146 54.2944C84.6284 58.5214 80.0588 61.1875 75.3754 61.4144C73.7689 61.5756 72.1785 61.2044 70.6 60.9435C68.2543 60.5129 65.9165 60.0252 63.5828 59.5246C64.1682 57.1768 64.7417 54.8246 65.3151 52.4725C67.9186 52.901 70.5201 53.3528 73.1215 53.7981C74.1306 53.9933 75.1596 53.779 76.1506 53.5542C78.0248 53.0749 79.8631 51.9741 80.8721 50.1777C81.8811 48.4598 81.981 46.1118 80.918 44.396C79.3915 41.9378 76.5323 40.8689 73.8769 40.6398C71.5231 40.5889 69.1674 40.6589 66.8136 40.6037C66.8157 38.1181 66.8697 35.6345 66.8796 33.1466C68.1124 33.1847 69.3412 33.0638 70.574 33.0936C72.3903 33.0702 74.2405 33.2314 76.0167 32.7266C77.9609 32.2197 79.909 31.1041 80.9021 29.1868C81.8971 27.3161 81.6273 24.911 80.5404 23.1527C78.87 20.4124 75.5852 19.1251 72.6001 19.4665C70.0585 19.9162 67.545 20.5227 65.0334 21.1166C64.5499 18.6648 64.0363 16.2194 63.5588 13.7654C65.7727 13.284 67.9865 12.811 70.2203 12.4505ZM112.136 13.1928C114.533 13.7018 116.925 14.2575 119.307 14.8428C122.035 19.5513 124.756 24.2641 127.617 28.8835C129.739 26.4042 131.821 23.8866 133.941 21.405C137.365 23.3818 140.542 26.0923 142.536 29.7022C143.922 32.1795 144.513 35.1212 144.211 37.9844C144.023 40.9134 142.784 43.6812 140.942 45.8467C138.573 48.6549 135.625 50.8309 132.64 52.8352C131.45 50.6804 130.2 48.5615 128.989 46.4173C131.499 44.7587 133.989 42.905 135.753 40.345C136.652 38.994 137.403 37.3418 137.159 35.6471C136.73 34.0331 135.549 32.8263 134.61 31.5304C131.855 34.9175 129.102 38.3111 126.326 41.6812C123.993 37.7489 121.673 33.8083 119.233 29.9503C119.227 39.3312 119.227 48.7142 119.231 58.0972C116.863 58.7187 114.504 59.3804 112.136 60.0018C112.136 44.3981 112.136 28.7944 112.136 13.1928ZM54.6055 17.0571C56.9772 16.2512 59.3229 15.3561 61.6866 14.529C61.6786 26.5822 61.6926 38.6355 61.6786 50.691C61.6846 52.3283 61.0072 53.9169 59.9223 55.0664C58.5237 56.5002 56.4857 57.0389 54.5815 56.8904C54.008 56.8332 53.4027 56.8141 52.8811 56.5193C49.0108 54.3305 45.1306 52.1608 41.2564 49.9783C42.5031 47.9613 43.756 45.9485 45.0168 43.9421C47.836 45.6453 50.6932 47.2784 53.5864 48.8394C53.9561 49.1342 54.6434 48.9688 54.5895 48.3919C54.5975 45.8192 54.5895 43.2465 54.5915 40.6759C50.9909 40.714 47.3964 40.6059 43.7979 40.6229C41.6281 40.5381 39.592 39.2591 38.2873 37.4499C37.2622 36.0204 36.471 34.2855 36.5669 32.4466C36.6828 30.4084 37.3681 28.3341 38.6968 26.8325C40.8907 25.0488 43.0986 23.2884 45.3004 21.5175C46.5233 23.5981 47.7461 25.6787 48.9689 27.7615C47.3485 29.0829 45.7101 30.3829 44.1336 31.7637C43.8318 31.9695 43.9138 32.3554 43.8918 32.6757C44.1436 32.909 44.4273 33.1572 44.791 33.0999C48.0578 33.1741 51.3247 33.1466 54.5915 33.1996C54.6014 27.8188 54.5715 22.438 54.6055 17.0571Z" fill="#848484"/>
<path d="M0 82.584C3.25871 82.5862 6.51564 82.5777 9.77458 82.5903C10.7236 84.8089 11.7066 87.0125 12.6577 89.229C13.4269 87.0104 14.2202 84.8004 14.9954 82.584C17.8667 82.5925 20.7379 82.5671 23.6092 82.5968C20.65 89.9097 17.6888 97.2249 14.7177 104.534C11.8105 104.54 8.90333 104.534 5.99615 104.536C6.89731 102.502 7.86028 100.5 8.79142 98.4825C5.87033 93.1781 2.90914 87.897 0 82.584ZM25.1697 82.584C28.5824 82.5819 31.993 82.5862 35.4038 82.5819C37.6915 82.5225 40.1731 82.8957 41.9594 84.5396C44.2592 86.6159 44.7747 90.3255 43.6857 93.2163C43.0064 95.0827 41.4799 96.5185 39.7056 97.1507C37.7215 97.9142 35.5816 97.7317 33.5116 97.7488C33.5096 100.012 33.5156 102.273 33.5095 104.536C30.7302 104.534 27.951 104.538 25.1717 104.536C25.1697 97.2185 25.1697 89.9013 25.1697 82.584ZM33.5116 88.3042C33.5116 89.5449 33.5116 90.7856 33.5116 92.0264C34.2989 92.0136 35.196 92.1007 35.8473 91.5323C36.4528 90.9087 36.4747 89.8207 36.0811 89.0677C35.5117 88.1812 34.3867 88.3403 33.5116 88.3042ZM52.1455 82.5819C55.1966 82.6009 58.2476 82.5522 61.2987 82.6074C63.5985 89.6341 65.9902 96.6288 68.3259 103.645C68.3279 101.878 68.3299 100.111 68.3259 98.3447C69.4029 98.6523 70.7356 98.752 71.6187 97.8908C72.386 97.0446 72.4339 95.7869 72.4739 94.6797C72.4718 90.65 72.4779 86.6202 72.4719 82.5903C78.8157 82.5777 85.1617 82.5862 91.5055 82.5862C91.4895 89.9076 91.5335 97.2312 91.4835 104.555C88.7341 104.521 85.9828 104.528 83.2334 104.55C83.1875 99.367 83.2275 94.1835 83.2115 88.9998C82.1305 88.9998 81.0496 88.9998 79.9686 88.9977C79.9547 92.0222 79.9866 95.0467 79.9526 98.069C79.9247 99.9333 79.4112 101.957 77.9466 103.129C76.0345 104.676 73.5009 104.901 71.1772 104.856C70.1042 104.901 69.0592 104.599 67.9962 104.536C65.3647 104.536 62.7333 104.536 60.1019 104.536C59.8181 103.478 59.5544 102.41 59.2687 101.352C57.5563 101.354 55.844 101.354 54.1336 101.354C53.8599 102.41 53.5802 103.466 53.3164 104.528C50.4752 104.548 47.634 104.525 44.7927 104.54C47.2224 97.2121 49.6919 89.9013 52.1455 82.5819ZM56.6991 90.4017C56.2356 92.2173 55.7601 94.0285 55.2905 95.8441C56.2316 95.8356 57.1707 95.8441 58.1118 95.8356C57.6423 94.0223 57.1807 92.2088 56.6991 90.4017ZM96.6205 82.584C99.6632 82.584 102.707 82.5819 105.75 82.584C106.817 86.705 107.87 90.8302 108.94 94.949C110.016 90.8324 111.069 86.707 112.127 82.584C115.173 82.584 118.218 82.5819 121.262 82.5862C122.209 89.9034 123.209 97.2143 124.142 104.534C121.457 104.538 118.771 104.536 116.086 104.536C115.766 100.799 115.458 97.0616 115.157 93.3224C114.096 97.0488 113.093 100.794 112.068 104.534C109.984 104.54 107.902 104.534 105.818 104.536C104.789 100.813 103.799 97.0785 102.735 93.3689C102.409 97.0891 102.12 100.813 101.799 104.534C99.1097 104.536 96.4232 104.538 93.7353 104.534C94.6804 97.2143 95.6694 89.9013 96.6205 82.584ZM129.007 90.457C129.91 87.8439 130.723 85.1801 131.685 82.5946C134.698 82.5777 137.716 82.5713 140.732 82.5989C141.262 83.8269 141.605 85.1801 142.071 86.4526C144.089 92.4803 146.117 98.5037 148.127 104.534C145.283 104.536 142.441 104.538 139.597 104.534C139.335 103.469 139.053 102.412 138.782 101.352C137.068 101.354 135.355 101.356 133.643 101.352C133.365 102.404 133.084 103.454 132.835 104.514C129.99 104.563 127.143 104.525 124.298 104.534C125.848 99.8336 127.443 95.1506 129.007 90.457ZM134.796 95.8378C135.738 95.8399 136.682 95.8399 137.627 95.8378C137.151 94.0244 136.672 92.2131 136.219 90.3933C135.734 92.2046 135.275 94.0244 134.796 95.8378ZM149.699 82.584C152.331 82.5883 154.962 82.5756 157.595 82.5903C157.588 87.7676 157.591 92.9426 157.593 98.1199C158.674 98.1199 159.755 98.1221 160.838 98.1177C160.838 92.9406 160.838 87.7634 160.838 82.584C163.47 82.584 166.1 82.584 168.731 82.584C168.731 87.7634 168.731 92.9406 168.731 98.1177C169.83 98.1199 170.929 98.1221 172.028 98.1177C172.028 92.9406 172.028 87.7634 172.028 82.584C174.641 82.584 177.257 82.584 179.87 82.584C179.866 89.9034 179.88 97.2206 179.862 104.54C169.809 104.532 159.757 104.536 149.703 104.538C149.694 97.2206 149.701 89.9034 149.699 82.584Z" fill="#848484"/>
</g>
<defs>
<clipPath id="clip0_232_300">
<rect width="180" height="105" fill="white"/>
</clipPath>
</defs>
</svg>
